<!--?xml version="1.0" encoding="utf-8"?-->
<!-- Generator: Adobe Illustrator 18.1.1, SVG Export Plug-In . SVG Version: 6.00 Build 0)  -->

<svg version="1.1" id="_x31_0" xmlns="http://www.w3.org/2000/svg" xmlns:xlink="http://www.w3.org/1999/xlink" x="0px" y="0px" viewBox="0 0 512 512" style="width: 256px; height: 256px; opacity: 1;" xml:space="preserve">
<style type="text/css">
	.st0{fill:#374149;}
</style>
<g>
	<path class="st0" d="M214.215,186.222c0-16.469-13.371-29.781-29.844-29.781c-16.469,0-29.782,13.312-29.782,29.781
		c0,16.473,13.313,29.844,29.782,29.844C200.844,216.066,214.215,202.695,214.215,186.222z" style="fill: rgb(0, 0, 0);"></path>
	<path class="st0" d="M331.946,283.41c-9.969-7.352-24.008-5.164-31.301,4.742c-3.406,4.618-7.418,8.633-12.035,12.031
		c-4.622,3.344-9.726,6.02-15.137,7.782c-11.242,3.77-23.762,3.77-34.946,0c-5.469-1.762-10.515-4.438-15.195-7.84
		c-4.558-3.34-8.633-7.355-11.973-11.973c-7.355-9.906-21.336-12.094-31.301-4.742c-9.969,7.297-12.098,21.332-4.805,31.301
		c6.078,8.266,13.375,15.5,21.641,21.578c8.387,6.137,17.684,10.879,27.531,14.164c10.149,3.398,20.786,5.106,31.543,5.106
		c10.82,0,21.457-1.707,31.606-5.106c9.847-3.285,19.086-8.027,27.473-14.164c8.266-6.078,15.558-13.312,21.636-21.578
		C344.039,304.742,341.851,290.707,331.946,283.41z" style="fill: rgb(0, 0, 0);"></path>
	<path class="st0" d="M327.566,156.442c-16.469,0-29.782,13.312-29.782,29.781c0,16.473,13.313,29.844,29.782,29.844
		c16.473,0,29.844-13.371,29.844-29.844C357.41,169.754,344.039,156.442,327.566,156.442z" style="fill: rgb(0, 0, 0);"></path>
	<path class="st0" d="M256,0C114.617,0,0,114.614,0,256s114.617,256,256,256c141.386,0,256-114.614,256-256S397.386,0,256,0z
		 M256,448c-105.867,0-192-86.133-192-192S150.133,64,256,64c105.871,0,192,86.133,192,192S361.871,448,256,448z" style="fill: rgb(0, 0, 0);"></path>
</g>
</svg>
